<?xml version="1.0" encoding="UTF-8" standalone="no"?>
<!DOCTYPE svg PUBLIC "-//W3C//DTD SVG 1.1//EN"
 "http://www.w3.org/Graphics/SVG/1.1/DTD/svg11.dtd">
<!-- Generated by graphviz version 14.1.3 (0)
 -->
<!-- Title: ow_translation_route Pages: 1 -->
<svg width="3846pt" height="1336pt"
 viewBox="0.00 0.00 3846.00 1336.00" xmlns="http://www.w3.org/2000/svg" xmlns:xlink="http://www.w3.org/1999/xlink">
<g id="graph0" class="graph" transform="scale(2.5 2.5) rotate(0) translate(25.2 509.04)">
<title>ow_translation_route</title>
<polygon fill="#ffffff" stroke="none" points="-25.2,25.2 -25.2,-509.04 1513.2,-509.04 1513.2,25.2 -25.2,25.2"/>
<text xml:space="preserve" text-anchor="middle" x="744" y="-457.04" font-family="Microsoft YaHei" font-size="24.00" fill="#2a2a2a">20 人并发 · 端到端 P95 ≤ 2s</text>
<g id="clust1" class="cluster">
<title>cluster_client</title>
<path fill="#ffffff" stroke="#2a2a2a" stroke-width="2" d="M20,-297.06C20,-297.06 894,-297.06 894,-297.06 900,-297.06 906,-303.06 906,-309.06 906,-309.06 906,-423.59 906,-423.59 906,-429.59 900,-435.59 894,-435.59 894,-435.59 20,-435.59 20,-435.59 14,-435.59 8,-429.59 8,-423.59 8,-423.59 8,-309.06 8,-309.06 8,-303.06 14,-297.06 20,-297.06"/>
<text xml:space="preserve" text-anchor="middle" x="457" y="-408.79" font-family="Microsoft YaHei" font-size="24.00" fill="#2a2a2a">客户端本地链路 · 每个用户独立执行</text>
</g>
<g id="clust3" class="cluster">
<title>cluster_gateway</title>
<path fill="#ffffff" stroke="#2a2a2a" stroke-width="2" d="M745,-150.53C745,-150.53 1468,-150.53 1468,-150.53 1474,-150.53 1480,-156.53 1480,-162.53 1480,-162.53 1480,-277.06 1480,-277.06 1480,-283.06 1474,-289.06 1468,-289.06 1468,-289.06 745,-289.06 745,-289.06 739,-289.06 733,-283.06 733,-277.06 733,-277.06 733,-162.53 733,-162.53 733,-156.53 739,-150.53 745,-150.53"/>
<text xml:space="preserve" text-anchor="middle" x="1106.5" y="-262.26" font-family="Microsoft YaHei" font-size="24.00" fill="#2a2a2a">缓存与中心翻译链路 · 仅发送新增文本</text>
</g>
<g id="clust5" class="cluster">
<title>cluster_guardrail</title>
<path fill="#ffffff" stroke="#2a2a2a" stroke-width="1.6" stroke-dasharray="5,2" d="M831,-8C831,-8 1362,-8 1362,-8 1368,-8 1374,-14 1374,-20 1374,-20 1374,-130.53 1374,-130.53 1374,-136.53 1368,-142.53 1362,-142.53 1362,-142.53 831,-142.53 831,-142.53 825,-142.53 819,-136.53 819,-130.53 819,-130.53 819,-20 819,-20 819,-14 825,-8 831,-8"/>
<text xml:space="preserve" text-anchor="middle" x="1096.5" y="-115.73" font-family="Microsoft YaHei" font-size="24.00" fill="#2a2a2a">质量回退与可观测性 · 不阻塞首屏</text>
</g>
<!-- users -->
<g id="node1" class="node">
<title>users</title>
<path fill="#2a2a2a" stroke="#2a2a2a" stroke-width="1.8" d="M121.89,-369.84C121.89,-369.84 38.11,-369.84 38.11,-369.84 32.11,-369.84 26.11,-363.84 26.11,-357.84 26.11,-357.84 26.11,-334.56 26.11,-334.56 26.11,-328.56 32.11,-322.56 38.11,-322.56 38.11,-322.56 121.89,-322.56 121.89,-322.56 127.89,-322.56 133.89,-328.56 133.89,-334.56 133.89,-334.56 133.89,-357.84 133.89,-357.84 133.89,-363.84 127.89,-369.84 121.89,-369.84"/>
<text xml:space="preserve" text-anchor="middle" x="80" y="-350.75" font-family="Microsoft YaHei" font-size="11.00" fill="#ffffff">20 个并发客户端</text>
<text xml:space="preserve" text-anchor="middle" x="80" y="-335.75" font-family="Microsoft YaHei" font-size="11.00" fill="#ffffff">同步突发触发</text>
</g>
<!-- capture -->
<g id="node2" class="node">
<title>capture</title>
<path fill="#f4c320" stroke="#2a2a2a" stroke-width="1.8" d="M267.77,-369.84C267.77,-369.84 168.23,-369.84 168.23,-369.84 162.23,-369.84 156.23,-363.84 156.23,-357.84 156.23,-357.84 156.23,-334.56 156.23,-334.56 156.23,-328.56 162.23,-322.56 168.23,-322.56 168.23,-322.56 267.77,-322.56 267.77,-322.56 273.77,-322.56 279.77,-328.56 279.77,-334.56 279.77,-334.56 279.77,-357.84 279.77,-357.84 279.77,-363.84 273.77,-369.84 267.77,-369.84"/>
<text xml:space="preserve" text-anchor="middle" x="218" y="-350.75" font-family="Microsoft YaHei" font-size="11.00" fill="#2a2a2a">01 &#160;截图 + 立即模糊</text>
<text xml:space="preserve" text-anchor="middle" x="218" y="-335.75" font-family="Microsoft YaHei" font-size="11.00" fill="#2a2a2a">预算 ≤ 50ms</text>
</g>
<!-- users&#45;&gt;capture -->
<g id="edge1" class="edge">
<title>users&#45;&gt;capture</title>
<path fill="none" stroke="#2a2a2a" stroke-width="1.8" d="M134.54,-346C134.54,-346 145.42,-346 145.42,-346"/>
<polygon fill="#2a2a2a" stroke="#2a2a2a" stroke-width="1.8" points="145.42,-348.63 152.92,-346 145.42,-343.38 145.42,-348.63"/>
</g>
<!-- delta -->
<g id="node3" class="node">
<title>delta</title>
<path fill="#ffffff" stroke="#2a2a2a" stroke-width="1.8" d="M426.52,-369.84C426.52,-369.84 313.48,-369.84 313.48,-369.84 307.48,-369.84 301.48,-363.84 301.48,-357.84 301.48,-357.84 301.48,-334.56 301.48,-334.56 301.48,-328.56 307.48,-322.56 313.48,-322.56 313.48,-322.56 426.52,-322.56 426.52,-322.56 432.52,-322.56 438.52,-328.56 438.52,-334.56 438.52,-334.56 438.52,-357.84 438.52,-357.84 438.52,-363.84 432.52,-369.84 426.52,-369.84"/>
<text xml:space="preserve" text-anchor="middle" x="370" y="-350.75" font-family="Microsoft YaHei" font-size="11.00" fill="#2a2a2a">02 &#160;感知哈希 + 行差异</text>
<text xml:space="preserve" text-anchor="middle" x="370" y="-335.75" font-family="Microsoft YaHei" font-size="11.00" fill="#2a2a2a">未变化：复用可信结果</text>
</g>
<!-- capture&#45;&gt;delta -->
<g id="edge2" class="edge">
<title>capture&#45;&gt;delta</title>
<path fill="none" stroke="#2a2a2a" stroke-width="1.8" d="M280.26,-346C280.26,-346 290.43,-346 290.43,-346"/>
<polygon fill="#2a2a2a" stroke="#2a2a2a" stroke-width="1.8" points="290.43,-348.63 297.93,-346 290.43,-343.38 290.43,-348.63"/>
</g>
<!-- ocr -->
<g id="node4" class="node">
<title>ocr</title>
<path fill="#f4c320" stroke="#2a2a2a" stroke-width="1.8" d="M577.02,-377.34C577.02,-377.34 472.98,-377.34 472.98,-377.34 466.98,-377.34 460.98,-371.34 460.98,-365.34 460.98,-365.34 460.98,-327.06 460.98,-327.06 460.98,-321.06 466.98,-315.06 472.98,-315.06 472.98,-315.06 577.02,-315.06 577.02,-315.06 583.02,-315.06 589.02,-321.06 589.02,-327.06 589.02,-327.06 589.02,-365.34 589.02,-365.34 589.02,-371.34 583.02,-377.34 577.02,-377.34"/>
<text xml:space="preserve" text-anchor="middle" x="525" y="-358.25" font-family="Microsoft YaHei" font-size="11.00" fill="#2a2a2a">03 &#160;本地 PP&#45;OCRv5</text>
<text xml:space="preserve" text-anchor="middle" x="525" y="-343.25" font-family="Microsoft YaHei" font-size="11.00" fill="#2a2a2a">文本 + bbox</text>
<text xml:space="preserve" text-anchor="middle" x="525" y="-328.25" font-family="Microsoft YaHei" font-size="11.00" fill="#2a2a2a">P95 ≤ 450ms</text>
</g>
<!-- delta&#45;&gt;ocr -->
<g id="edge3" class="edge">
<title>delta&#45;&gt;ocr</title>
<path fill="none" stroke="#2a2a2a" stroke-width="1.8" d="M439.34,-346C439.34,-346 449.95,-346 449.95,-346"/>
<polygon fill="#2a2a2a" stroke="#2a2a2a" stroke-width="1.8" points="449.95,-348.63 457.45,-346 449.95,-343.38 449.95,-348.63"/>
</g>
<!-- quality -->
<g id="node5" class="node">
<title>quality</title>
<path fill="#ffffff" stroke="#2a2a2a" stroke-width="1.8" d="M715.39,-369.84C715.39,-369.84 622.61,-369.84 622.61,-369.84 616.61,-369.84 610.61,-363.84 610.61,-357.84 610.61,-357.84 610.61,-334.56 610.61,-334.56 610.61,-328.56 616.61,-322.56 622.61,-322.56 622.61,-322.56 715.39,-322.56 715.39,-322.56 721.39,-322.56 727.39,-328.56 727.39,-334.56 727.39,-334.56 727.39,-357.84 727.39,-357.84 727.39,-363.84 721.39,-369.84 715.39,-369.84"/>
<text xml:space="preserve" text-anchor="middle" x="669" y="-350.75" font-family="Microsoft YaHei" font-size="11.00" fill="#2a2a2a">04 &#160;OCR 质量门控</text>
<text xml:space="preserve" text-anchor="middle" x="669" y="-335.75" font-family="Microsoft YaHei" font-size="11.00" fill="#2a2a2a">置信度 ≥ 0.90</text>
</g>
<!-- ocr&#45;&gt;quality -->
<g id="edge4" class="edge">
<title>ocr&#45;&gt;quality</title>
<path fill="none" stroke="#2a2a2a" stroke-width="1.8" d="M589.84,-346C589.84,-346 599.78,-346 599.78,-346"/>
<polygon fill="#2a2a2a" stroke="#2a2a2a" stroke-width="1.8" points="599.78,-348.63 607.28,-346 599.78,-343.38 599.78,-348.63"/>
</g>
<!-- classify -->
<g id="node6" class="node">
<title>classify</title>
<path fill="#f4c320" stroke="#2a2a2a" stroke-width="1.8" d="M876.27,-369.84C876.27,-369.84 761.73,-369.84 761.73,-369.84 755.73,-369.84 749.73,-363.84 749.73,-357.84 749.73,-357.84 749.73,-334.56 749.73,-334.56 749.73,-328.56 755.73,-322.56 761.73,-322.56 761.73,-322.56 876.27,-322.56 876.27,-322.56 882.27,-322.56 888.27,-328.56 888.27,-334.56 888.27,-334.56 888.27,-357.84 888.27,-357.84 888.27,-363.84 882.27,-369.84 876.27,-369.84"/>
<text xml:space="preserve" text-anchor="middle" x="819" y="-350.75" font-family="Microsoft YaHei" font-size="11.00" fill="#2a2a2a">05 &#160;bbox 颜色采样</text>
<text xml:space="preserve" text-anchor="middle" x="819" y="-335.75" font-family="Microsoft YaHei" font-size="11.00" fill="#2a2a2a">频道分类 + 新增行提取</text>
</g>
<!-- quality&#45;&gt;classify -->
<g id="edge5" class="edge">
<title>quality&#45;&gt;classify</title>
<path fill="none" stroke="#2a2a2a" stroke-width="1.8" d="M728.28,-346C728.28,-346 738.75,-346 738.75,-346"/>
<polygon fill="#2a2a2a" stroke="#2a2a2a" stroke-width="1.8" points="738.75,-348.63 746.25,-346 738.75,-343.38 738.75,-348.63"/>
</g>
<!-- glm -->
<g id="node12" class="node">
<title>glm</title>
<path fill="#ffffff" stroke="#2a2a2a" stroke-width="1.8" d="M979.27,-86.28C979.27,-86.28 846.73,-86.28 846.73,-86.28 840.73,-86.28 834.73,-80.28 834.73,-74.28 834.73,-74.28 834.73,-36 834.73,-36 834.73,-30 840.73,-24 846.73,-24 846.73,-24 979.27,-24 979.27,-24 985.27,-24 991.27,-30 991.27,-36 991.27,-36 991.27,-74.28 991.27,-74.28 991.27,-80.28 985.27,-86.28 979.27,-86.28"/>
<text xml:space="preserve" text-anchor="middle" x="913" y="-67.19" font-family="Microsoft YaHei" font-size="11.00" fill="#2a2a2a">OCR 低置信度</text>
<text xml:space="preserve" text-anchor="middle" x="913" y="-52.19" font-family="Microsoft YaHei" font-size="11.00" fill="#2a2a2a">GLM&#45;OCR 回退 ≤ 700ms</text>
<text xml:space="preserve" text-anchor="middle" x="913" y="-37.19" font-family="Microsoft YaHei" font-size="11.00" fill="#2a2a2a">成功后进入步骤 05</text>
</g>
<!-- quality&#45;&gt;glm -->
<g id="edge11" class="edge">
<title>quality&#45;&gt;glm</title>
<path fill="none" stroke="#2a2a2a" stroke-width="1.8" stroke-dasharray="5,2" d="M669,-321.87C669,-251.89 669,-55 669,-55 669,-55 823.89,-55 823.89,-55"/>
<polygon fill="#2a2a2a" stroke="#2a2a2a" stroke-width="1.8" points="823.89,-57.63 831.39,-55 823.89,-52.38 823.89,-57.63"/>
</g>
<!-- local_cache -->
<g id="node7" class="node">
<title>local_cache</title>
<path fill="#2a2a2a" stroke="#2a2a2a" stroke-width="1.8" d="M875.14,-223.31C875.14,-223.31 762.86,-223.31 762.86,-223.31 756.86,-223.31 750.86,-217.31 750.86,-211.31 750.86,-211.31 750.86,-188.03 750.86,-188.03 750.86,-182.03 756.86,-176.03 762.86,-176.03 762.86,-176.03 875.14,-176.03 875.14,-176.03 881.14,-176.03 887.14,-182.03 887.14,-188.03 887.14,-188.03 887.14,-211.31 887.14,-211.31 887.14,-217.31 881.14,-223.31 875.14,-223.31"/>
<text xml:space="preserve" text-anchor="middle" x="819" y="-204.22" font-family="Microsoft YaHei" font-size="11.00" fill="#ffffff">06 &#160;本地词典 / SQLite</text>
<text xml:space="preserve" text-anchor="middle" x="819" y="-189.22" font-family="Microsoft YaHei" font-size="11.00" fill="#ffffff">命中即返回 &lt; 10ms</text>
</g>
<!-- classify&#45;&gt;local_cache -->
<g id="edge10" class="edge">
<title>classify&#45;&gt;local_cache</title>
<path fill="none" stroke="#2a2a2a" stroke-width="1.8" d="M819,-297.06C819,-295.06 819,-293.06 819,-291.06"/>
<polygon fill="#2a2a2a" stroke="#2a2a2a" stroke-width="1.8" points="821.63,-299.28 819,-291.78 816.38,-299.28 821.63,-299.28"/>
</g>
<!-- api -->
<g id="node8" class="node">
<title>api</title>
<path fill="#f4c320" stroke="#2a2a2a" stroke-width="1.8" d="M1035.27,-223.31C1035.27,-223.31 920.73,-223.31 920.73,-223.31 914.73,-223.31 908.73,-217.31 908.73,-211.31 908.73,-211.31 908.73,-188.03 908.73,-188.03 908.73,-182.03 914.73,-176.03 920.73,-176.03 920.73,-176.03 1035.27,-176.03 1035.27,-176.03 1041.27,-176.03 1047.27,-182.03 1047.27,-188.03 1047.27,-188.03 1047.27,-211.31 1047.27,-211.31 1047.27,-217.31 1041.27,-223.31 1035.27,-223.31"/>
<text xml:space="preserve" text-anchor="middle" x="978" y="-204.22" font-family="Microsoft YaHei" font-size="11.00" fill="#2a2a2a">07 &#160;FastAPI 网关</text>
<text xml:space="preserve" text-anchor="middle" x="978" y="-189.22" font-family="Microsoft YaHei" font-size="11.00" fill="#2a2a2a">认证 · 限流 · Deadline</text>
</g>
<!-- local_cache&#45;&gt;api -->
<g id="edge6" class="edge">
<title>local_cache&#45;&gt;api</title>
<path fill="none" stroke="#2a2a2a" stroke-width="1.8" d="M887.81,-200C887.81,-200 897.85,-200 897.85,-200"/>
<polygon fill="#2a2a2a" stroke="#2a2a2a" stroke-width="1.8" points="897.85,-202.63 905.35,-200 897.85,-197.38 897.85,-202.63"/>
</g>
<!-- redis -->
<g id="node9" class="node">
<title>redis</title>
<path fill="#2a2a2a" stroke="#2a2a2a" stroke-width="1.8" d="M1179.02,-223.31C1179.02,-223.31 1080.98,-223.31 1080.98,-223.31 1074.98,-223.31 1068.98,-217.31 1068.98,-211.31 1068.98,-211.31 1068.98,-188.03 1068.98,-188.03 1068.98,-182.03 1074.98,-176.03 1080.98,-176.03 1080.98,-176.03 1179.02,-176.03 1179.02,-176.03 1185.02,-176.03 1191.02,-182.03 1191.02,-188.03 1191.02,-188.03 1191.02,-211.31 1191.02,-211.31 1191.02,-217.31 1185.02,-223.31 1179.02,-223.31"/>
<text xml:space="preserve" text-anchor="middle" x="1130" y="-204.22" font-family="Microsoft YaHei" font-size="11.00" fill="#ffffff">08 &#160;Redis 全局缓存</text>
<text xml:space="preserve" text-anchor="middle" x="1130" y="-189.22" font-family="Microsoft YaHei" font-size="11.00" fill="#ffffff">请求合并 &lt; 10ms</text>
</g>
<!-- api&#45;&gt;redis -->
<g id="edge7" class="edge">
<title>api&#45;&gt;redis</title>
<path fill="none" stroke="#2a2a2a" stroke-width="1.8" d="M1047.77,-200C1047.77,-200 1058.13,-200 1058.13,-200"/>
<polygon fill="#2a2a2a" stroke="#2a2a2a" stroke-width="1.8" points="1058.13,-202.63 1065.63,-200 1058.13,-197.38 1058.13,-202.63"/>
</g>
<!-- metrics -->
<g id="node13" class="node">
<title>metrics</title>
<path fill="#2a2a2a" stroke="#2a2a2a" stroke-width="1.8" d="M1140.64,-86.28C1140.64,-86.28 1025.36,-86.28 1025.36,-86.28 1019.36,-86.28 1013.36,-80.28 1013.36,-74.28 1013.36,-74.28 1013.36,-36 1013.36,-36 1013.36,-30 1019.36,-24 1025.36,-24 1025.36,-24 1140.64,-24 1140.64,-24 1146.64,-24 1152.64,-30 1152.64,-36 1152.64,-36 1152.64,-74.28 1152.64,-74.28 1152.64,-80.28 1146.64,-86.28 1140.64,-86.28"/>
<text xml:space="preserve" text-anchor="middle" x="1083" y="-67.19" font-family="Microsoft YaHei" font-size="11.00" fill="#ffffff">Prometheus / Grafana</text>
<text xml:space="preserve" text-anchor="middle" x="1083" y="-52.19" font-family="Microsoft YaHei" font-size="11.00" fill="#ffffff">P50 · P95 · P99</text>
<text xml:space="preserve" text-anchor="middle" x="1083" y="-37.19" font-family="Microsoft YaHei" font-size="11.00" fill="#ffffff">429 · CER · bbox IoU</text>
</g>
<!-- api&#45;&gt;metrics -->
<g id="edge12" class="edge">
<title>api&#45;&gt;metrics</title>
<path fill="none" stroke="#2a2a2a" stroke-width="1.8" stroke-dasharray="5,2" d="M1030.31,-175.15C1030.31,-175.15 1030.31,-97.36 1030.31,-97.36"/>
<polygon fill="#2a2a2a" stroke="#2a2a2a" stroke-width="1.8" points="1032.94,-97.36 1030.31,-89.86 1027.69,-97.36 1032.94,-97.36"/>
</g>
<!-- gpu -->
<g id="node10" class="node">
<title>gpu</title>
<path fill="#f4c320" stroke="#2a2a2a" stroke-width="1.8" d="M1317.39,-230.81C1317.39,-230.81 1224.61,-230.81 1224.61,-230.81 1218.61,-230.81 1212.61,-224.81 1212.61,-218.81 1212.61,-218.81 1212.61,-180.53 1212.61,-180.53 1212.61,-174.53 1218.61,-168.53 1224.61,-168.53 1224.61,-168.53 1317.39,-168.53 1317.39,-168.53 1323.39,-168.53 1329.39,-174.53 1329.39,-180.53 1329.39,-180.53 1329.39,-218.81 1329.39,-218.81 1329.39,-224.81 1323.39,-230.81 1317.39,-230.81"/>
<text xml:space="preserve" text-anchor="middle" x="1271" y="-211.72" font-family="Microsoft YaHei" font-size="11.00" fill="#2a2a2a">09 &#160;GPU 本地翻译</text>
<text xml:space="preserve" text-anchor="middle" x="1271" y="-196.72" font-family="Microsoft YaHei" font-size="11.00" fill="#2a2a2a">动态批处理 ≤ 20</text>
<text xml:space="preserve" text-anchor="middle" x="1271" y="-181.72" font-family="Microsoft YaHei" font-size="11.00" fill="#2a2a2a">P95 ≤ 650ms</text>
</g>
<!-- redis&#45;&gt;gpu -->
<g id="edge8" class="edge">
<title>redis&#45;&gt;gpu</title>
<path fill="none" stroke="#2a2a2a" stroke-width="1.8" d="M1191.84,-200C1191.84,-200 1201.67,-200 1201.67,-200"/>
<polygon fill="#2a2a2a" stroke="#2a2a2a" stroke-width="1.8" points="1201.67,-202.63 1209.17,-200 1201.67,-197.38 1201.67,-202.63"/>
</g>
<!-- render -->
<g id="node11" class="node">
<title>render</title>
<path fill="#2a2a2a" stroke="#2a2a2a" stroke-width="1.8" d="M1450.39,-223.31C1450.39,-223.31 1363.61,-223.31 1363.61,-223.31 1357.61,-223.31 1351.61,-217.31 1351.61,-211.31 1351.61,-211.31 1351.61,-188.03 1351.61,-188.03 1351.61,-182.03 1357.61,-176.03 1363.61,-176.03 1363.61,-176.03 1450.39,-176.03 1450.39,-176.03 1456.39,-176.03 1462.39,-182.03 1462.39,-188.03 1462.39,-188.03 1462.39,-211.31 1462.39,-211.31 1462.39,-217.31 1456.39,-223.31 1450.39,-223.31"/>
<text xml:space="preserve" text-anchor="middle" x="1407" y="-204.22" font-family="Microsoft YaHei" font-size="11.00" fill="#ffffff">10 &#160;原位覆盖译文</text>
<text xml:space="preserve" text-anchor="middle" x="1407" y="-189.22" font-family="Microsoft YaHei" font-size="11.00" fill="#ffffff">端到端 P95 ≤ 2s</text>
</g>
<!-- gpu&#45;&gt;render -->
<g id="edge9" class="edge">
<title>gpu&#45;&gt;render</title>
<path fill="none" stroke="#2a2a2a" stroke-width="1.8" d="M1330.26,-208C1330.26,-208 1340.72,-208 1340.72,-208"/>
<polygon fill="#2a2a2a" stroke="#2a2a2a" stroke-width="1.8" points="1340.72,-210.63 1348.22,-208 1340.72,-205.38 1340.72,-210.63"/>
</g>
<!-- deepseek -->
<g id="node14" class="node">
<title>deepseek</title>
<path fill="#ffffff" stroke="#2a2a2a" stroke-width="1.8" d="M1345.77,-86.28C1345.77,-86.28 1186.23,-86.28 1186.23,-86.28 1180.23,-86.28 1174.23,-80.28 1174.23,-74.28 1174.23,-74.28 1174.23,-36 1174.23,-36 1174.23,-30 1180.23,-24 1186.23,-24 1186.23,-24 1345.77,-24 1345.77,-24 1351.77,-24 1357.77,-30 1357.77,-36 1357.77,-36 1357.77,-74.28 1357.77,-74.28 1357.77,-80.28 1351.77,-86.28 1345.77,-86.28"/>
<text xml:space="preserve" text-anchor="middle" x="1266" y="-67.19" font-family="Microsoft YaHei" font-size="11.00" fill="#2a2a2a">翻译低置信度</text>
<text xml:space="preserve" text-anchor="middle" x="1266" y="-52.19" font-family="Microsoft YaHei" font-size="11.00" fill="#2a2a2a">DeepSeek V4 Flash 异步纠错</text>
<text xml:space="preserve" text-anchor="middle" x="1266" y="-37.19" font-family="Microsoft YaHei" font-size="11.00" fill="#2a2a2a">下一帧修正 · thinking=disabled</text>
</g>
<!-- render&#45;&gt;deepseek -->
<g id="edge13" class="edge">
<title>render&#45;&gt;deepseek</title>
<path fill="none" stroke="#2a2a2a" stroke-width="1.8" stroke-dasharray="5,2" d="M1350.89,-192C1344.66,-192 1340.5,-192 1340.5,-192 1340.5,-192 1340.5,-97.11 1340.5,-97.11"/>
<polygon fill="#2a2a2a" stroke="#2a2a2a" stroke-width="1.8" points="1343.13,-97.11 1340.5,-89.61 1337.88,-97.11 1343.13,-97.11"/>
</g>
</g>
</svg>
